<?xml version="1.0" encoding="utf-8"?>
<!-- Generator: Adobe Illustrator 19.2.1, SVG Export Plug-In . SVG Version: 6.00 Build 0)  -->
<svg version="1.1" id="layer" xmlns="http://www.w3.org/2000/svg" xmlns:xlink="http://www.w3.org/1999/xlink" x="0px" y="0px"
	 viewBox="0 0 652 652" style="enable-background:new 0 0 652 652;" xml:space="preserve">
<style type="text/css">
	.st0{fill:#022169;}
</style>
<g>
	<rect x="175.5" y="254.4" class="st0" width="18.6" height="110.3"/>
	<g>
		<path class="st0" d="M119,309.9v-14.4c0-13-9.8-19.8-21.9-19.8c-11.8,0-21.8,6.6-21.8,19.8v50.4c0,13.2,10,19.8,21.8,19.8
			c12.3,0,21.9-6.8,21.9-19.8v-16h-18.6v17.9c0,1.9-1.2,3.5-3.2,3.5c-2,0-3.2-1.6-3.2-3.5v-54.5c0-1.7,1.4-3.2,3.2-3.2
			c1.7,0,3.2,1.4,3.2,3.2v16.6H119z"/>
		<path class="st0" d="M401.3,310.6h-6.4v-17c0-2,1.4-3.4,3.2-3.4c1.8,0,3.2,1.4,3.2,3.4V310.6z M419.9,295.6
			c0-13.1-9.8-19.8-21.9-19.8c-11.8,0-21.8,6.6-21.8,19.8v50.3c0,13.2,10,19.8,21.8,19.8c11.6,0,21.9-6.5,21.9-19.8v-16h-18.6v17.9
			c0,2.4-1.6,3.5-3.2,3.5c-1.9,0-3.2-1.4-3.2-3.5V324h25.1V295.6z"/>
		<path class="st0" d="M551.5,310.6h-6.4v-17c0-2,1.4-3.4,3.2-3.4c1.8,0,3.2,1.4,3.2,3.4V310.6z M570.1,295.6
			c0-13.1-9.8-19.8-21.9-19.8c-11.8,0-21.8,6.6-21.8,19.8v50.3c0,13.2,10,19.9,21.8,19.9c11.6,0,21.9-6.6,21.9-19.9v-16h-18.6v17.9
			c0,2.4-1.6,3.5-3.2,3.5c-1.9,0-3.2-1.4-3.2-3.5V324h25.1V295.6z"/>
		<path class="st0" d="M225.6,276.8v69.5c0,2.1-1.2,3.5-3.2,3.5c-1.9,0-3.2-1.2-3.2-3.5v-69.5h-18.6V350c0,9.7,6,15.7,13.2,15.7
			c7.3,0,10.6-5.3,11.7-7.2h0.4l0.3,6.1h18v-87.8H225.6z"/>
		<path class="st0" d="M457.2,275.8c-6.2,0-10,4.7-11.8,7.2H445l-0.4-6.1h-18.3v87.8H445v-69.4c0-2.2,1.2-3.5,3.2-3.5
			c1.9,0,3.2,1.4,3.2,3.5v28.7H470v-33C470,281.6,464.4,275.8,457.2,275.8"/>
		<path class="st0" d="M607.4,275.8c-6.2,0-10,4.7-11.8,7.2h-0.4l-0.4-6.1h-18.3v87.8h18.6v-69.4c0-2.1,1.2-3.5,3.2-3.5
			c1.9,0,3.2,1.4,3.2,3.5v28.7h18.6v-33C620.2,281.7,614.6,275.8,607.4,275.8"/>
		<path class="st0" d="M501.5,340.7c0,2.3-1.4,3.6-3.2,3.6c-1.8,0-3.2-1.3-3.2-3.6v-45.5c0-2.3,1.6-3.3,3.2-3.3
			c1.8,0,3.2,1.3,3.2,3.3V340.7z M501.7,276.8l-0.3,6.2H501c-1-2-4.6-7.2-11.6-7.2c-6.7,0-13,5.2-13,14.7V343
			c0,10,5.8,15.9,13.1,15.9c6.9,0,10.3-4.6,11.4-6.4h0.6v19.4c0,2.1-1.3,3.3-3.2,3.3c-1.5,0-3.2-1.1-3.2-3.3V364h-18.6v4.8
			c0,13.7,8.8,19.9,21.8,19.9c12.8,0,21.9-6.1,21.9-19.9v-92H501.7z"/>
		<path class="st0" d="M156.1,275.8c-6.6,0-10.5,4.7-11.8,7.2H144v-28.5h-18.6v110.3H144V296c0-1.9,1.3-3.4,3.2-3.4
			c2,0,3.2,1.5,3.2,3.4v68.7h18.6v-72.9C169.1,279.9,162,275.8,156.1,275.8"/>
		<path class="st0" d="M293.4,284.3c-0.9-3.2-4.9-8.5-11.8-8.5c-6.7,0-10.6,4.5-12,7.2h-0.4l-0.2-6.1h-18.4v87.8h18.6v-69.4
			c0-2.2,1.5-3.5,3.3-3.5c1.8,0,3.3,1.4,3.3,3.5v69.4h18.7v-69.4c0-2.3,1.6-3.5,3.3-3.5c1.7,0,3.3,1.3,3.3,3.5v69.4h18.6v-72.1
			c0-11.9-6.3-16.8-13.4-16.8c-7.1,0-11.3,5.3-12.7,8.5H293.4z"/>
		<path class="st0" d="M351.3,346.3c0,2.1-1.2,3.5-3.2,3.5c-1.7,0-3.2-1.1-3.2-3.5v-51c0-2.5,1.6-3.6,3.2-3.6c1.8,0,3.2,1.1,3.2,3.6
			V346.3z M356.4,275.8c-6.2,0-10,5.3-11.2,7.2h-0.4v-28.6h-18.6v110.3h18.4l0.2-6.1h0.4c0.9,2.4,4.2,7.2,11,7.2
			c7.9,0,13.6-6.8,13.6-17.1v-56.9C369.9,281.9,363.9,275.8,356.4,275.8"/>
		<path class="st0" d="M59.9,309c-4-3.9-9.2-8.9-11.5-11.1c-5.7-5.4-7.3-8.4-7.3-15.3v-8.7c0-2.1,1.4-3.3,3.3-3.3
			c2,0,3.3,1.4,3.3,3.3v17.2h20.8v-17c0-14.3-11.4-19.8-24.1-19.8c-12.7,0-24.2,5.4-24.2,19.9v13.2c0,10.7,4.5,16.4,8.8,20.5
			c3.4,3.2,6.1,5.7,11.3,10.7c6.2,5.8,7.4,8.8,7.4,17.1v10.3c0,3-1.4,4.2-3.3,4.2c-2.1,0-3.3-1.3-3.3-4.2v-20.7H20.2v21.1
			c0,14.6,11.4,20,24.3,20c12.7,0,24.5-5.4,24.5-20.7V331C69,322.3,67,316,59.9,309"/>
	</g>
</g>
</svg>
