<?xml version="1.0" encoding="utf-8"?>
<!-- Generator: Adobe Illustrator 25.2.0, SVG Export Plug-In . SVG Version: 6.00 Build 0)  -->
<svg version="1.1" id="katman_1" xmlns="http://www.w3.org/2000/svg" xmlns:xlink="http://www.w3.org/1999/xlink" x="0px" y="0px"
	 viewBox="0 0 2500 2500" style="enable-background:new 0 0 2500 2500;" xml:space="preserve">
<style type="text/css">
	.st0{fill-rule:evenodd;clip-rule:evenodd;fill:#FFFFFF;fill-opacity:0;}
	.st1{fill-rule:evenodd;clip-rule:evenodd;fill:#D35B36;}
</style>
<g>
	<path class="st0" d="M0,0h2500v2500H0V0z"/>
	<path class="st1" d="M2107.77,1247.03c-11.05-18.83-13.35-42.5-13.35-60.92c0-62.03,55.78-114.6,113.16-114.6l182.13,0.09
		l-70.8,70.67l-112.05-0.1c-46.03-0.03-100.24,45.87-99.08,105.3L2107.77,1247.03L2107.77,1247.03z M2319.08,1248.87
		c11.02,18.79,13.35,42.48,13.35,60.87c0,62.06-55.78,114.63-113.19,114.63l-182.13-0.1l70.8-70.67l112.07,0.13
		c46.03,0.03,100.24-45.9,99.08-105.33L2319.08,1248.87L2319.08,1248.87z M2299.8,1292.11c6.27-12.32,9.9-25.82,10.66-39.62
		l-50.05,0.04c-0.4,13.5-2.86,26.85-7.28,39.61L2299.8,1292.11L2299.8,1292.11z M2294.53,1300.85
		c-21.98,32.45-51.55,44.36-77.34,44.15h0.13c12.79-10.18,27.29-29.58,31.94-44.18L2294.53,1300.85z M2243.51,1292.14
		c4.92-12.68,7.63-26.11,8-39.7h-76.2c0.36,13.59,3.05,27.02,7.98,39.7H2243.51L2243.51,1292.14z M2127.04,1292.11
		c-6.29-12.32-9.93-25.81-10.69-39.62l50.08,0.04c0.4,13.14,2.76,26.83,7.28,39.61L2127.04,1292.11L2127.04,1292.11z
		 M2213.47,1336.16c10.34-8.74,21.37-22.8,27.3-35.29h-54.75c5.95,12.49,16.98,26.55,27.3,35.29H2213.47z M2132.31,1300.85
		c21.96,32.45,51.5,44.36,77.31,44.15h-0.1c-12.81-10.18-27.3-29.58-31.94-44.18L2132.31,1300.85z M2299.8,1203.89
		c6.23,12.2,10,26.19,10.66,39.61l-50.05-0.04c-0.4-13.49-2.86-26.84-7.28-39.6L2299.8,1203.89L2299.8,1203.89z M2294.53,1195.14
		c-21.98-32.41-51.55-44.33-77.34-44.15h0.13c12.79,10.18,27.29,29.62,31.94,44.2L2294.53,1195.14z M2243.51,1203.89
		c4.81,12.05,7.6,25.99,8,39.66h-76.2c0.35-13.58,3.05-27,7.98-39.66H2243.51L2243.51,1203.89z M2127.04,1203.89
		c-6.28,12.31-9.92,25.81-10.69,39.61l50.08-0.04c0.4-13.14,2.76-26.81,7.28-39.6L2127.04,1203.89L2127.04,1203.89z
		 M2213.47,1159.86c10.34,8.75,21.37,22.77,27.3,35.29h-54.75c5.95-12.52,16.98-26.54,27.3-35.29H2213.47z M2132.31,1195.14
		c21.96-32.41,51.5-44.33,77.31-44.15h-0.1c-12.81,10.18-27.3,29.62-31.94,44.2L2132.31,1195.14z M1191.74,1247.42h-47.75v-68.58
		h-50.67v159.89l-0.18,7.85c2.79,48.96,36.07,82.58,88.18,81.92c52.85-0.66,89.92-40,89.92-90.71
		C1271.24,1289.17,1240.35,1247.42,1191.74,1247.42z M546.35,1244.02c-62.66,0-94.73,39.38-94.73,91.2
		c0,59.8,38.91,92.14,94.73,92.14c58.05,0,95.65-34.95,95.65-92.14C642,1283.98,608.96,1244.02,546.35,1244.02L546.35,1244.02z
		 M1001.03,1247.3l0.01,0.18h-38.62c-26.87,0-49.39,6.78-67.04,26.15c-16.26,17.86-23.18,33.41-23.15,61.71
		c0.04,50.39,41.02,88.96,84.74,89.04c22.36,0.05,35.85-7.04,44.08-18.66l-0.04,16.61h52.77V1247.3H1001.03z M1419.66,1247.3
		l0.03,0.18h-38.64c-26.85,0-49.4,6.78-67.03,26.15c-16.26,17.86-23.18,33.41-23.18,61.71c0.05,50.39,41.04,88.96,84.76,89.04
		c22.37,0.05,35.87-7.04,44.1-18.66l-0.05,16.61h52.76V1247.3H1419.66z M1180.17,1374.82c-17.08,0-35.72-18.77-36.16-36.57h-0.03
		v-40.26l1.28-0.03h37.11c15.62,0,37.55,16.29,37.55,36.76C1219.92,1353.98,1201.82,1374.82,1180.17,1374.82L1180.17,1374.82z
		 M194.6,1422.6h-82.58l0.08-52.99l84.69,0.26c21.57,0,26.5-17.02,26.73-25.73c0.45-17.63-26.2-26.39-36.8-28.6
		c-31.48-6.61-76.43-25.06-76.43-79.92l0.25,0.23c0.19-24.53,7.69-40.08,15.97-49.22c9.45-10.38,26.29-26.89,69.4-25.84h64.47
		c0,0-0.53,53.02-0.09,53.02l-66.81-0.03c-21.57,0-26.5,17.03-26.73,25.76c0.27,17.65,26.19,26.39,36.8,28.6
		c31.46,6.61,76.44,25.06,76.44,79.89h-0.01c-0.19,24.53-10.04,41.27-17.3,49.22c-7.17,7.81-32.02,26.45-75.13,25.36h7.06
		L194.6,1422.6L194.6,1422.6z M546.34,1376.62c-26.37,0-41.63-17.17-41.63-41.19c0-25.2,19.74-41.17,41.63-41.17
		c25.17,0,42.09,15.95,42.09,41.17S571.51,1376.62,546.34,1376.62z M1000.51,1338.32c-1.49,19.3-17.44,36.55-36.92,36.55
		c-20.45,0-38.82-19.08-38.82-39.54c0-20.44,18.37-37.03,38.82-37.03h37.64l-0.03,39.79L1000.51,1338.32L1000.51,1338.32z
		 M1419.15,1338.32c-1.49,19.3-17.46,36.55-36.94,36.55c-20.47,0-38.83-19.08-38.83-39.54c0-20.44,18.37-37.03,38.83-37.03h37.64
		l-0.03,39.79L1419.15,1338.32L1419.15,1338.32z M1621.04,1247.57h-59.93v0.14h-45.93v174.57h49.88v-123.56h39.47
		c21.89,0,22.42,10.56,23.46,37.03l-0.21,4.89v82.05h50.08v-79.17C1678.57,1290.36,1676.72,1255.01,1621.04,1247.57L1621.04,1247.57
		z M349.04,1337.43c0-23.1,18.14-39.44,38.23-39.44l49.83-0.18l-0.05-49.4h-55.64c-47.95,0-86.08,35.82-85.74,86.16
		c0.29,39.71,29.73,88.16,89.15,88.05l53.92,0.08l-0.36-46.51l-48.46-0.1C368.81,1376.09,350.81,1359.93,349.04,1337.43
		L349.04,1337.43z M816.89,1236.9c17.28-0.35,31-14.65,30.65-31.93c-0.34-16.78-13.87-30.31-30.65-30.65
		c-17.28,0.35-31,14.65-30.65,31.93C786.58,1223.03,800.1,1236.56,816.89,1236.9z M791.52,1422.69h51.75v-175.03h-51.75
		L791.52,1422.69L791.52,1422.69z M1894.68,1422.69l-78.78-91.62l69.76-82.09h-64.16l-55.63,64.73v-135.31h-49.04v244.29h49.04
		v-73.94l64.06,73.94L1894.68,1422.69L1894.68,1422.69z M751.22,1372.82c-12.27,0-24.03-8.34-24.03-20.12v-58.1h29.77v-47.37h-29.79
		l-0.01-69.78h-49.54v69.78H651.2v47.37h26.41v74.98c0.39,26.45,25.86,52.62,52.88,53.05l29.93,0.08v-49.49L751.22,1372.82
		L751.22,1372.82z"/>
</g>
</svg>
